<mxfile host="app.diagrams.net" agent="Mozilla/5.0 (Windows NT 10.0; Win64; x64) AppleWebKit/537.36 (KHTML, like Gecko) Chrome/128.0.0.0 Safari/537.36" version="24.7.8">
  <diagram id="C5RBs43oDa-KdzZeNtuy" name="Page-1">
    <mxGraphModel dx="704" dy="1537" grid="1" gridSize="10" guides="1" tooltips="1" connect="1" arrows="1" fold="1" page="1" pageScale="1" pageWidth="827" pageHeight="1169" math="0" shadow="0">
      <root>
        <mxCell id="WIyWlLk6GJQsqaUBKTNV-0" />
        <mxCell id="WIyWlLk6GJQsqaUBKTNV-1" parent="WIyWlLk6GJQsqaUBKTNV-0" />
        <mxCell id="NQoc6Oi-0HFmqZmTuHze-75" value="Data warehous&lt;div&gt;Redshift&lt;br&gt;&lt;/div&gt;" style="shape=cylinder3;whiteSpace=wrap;html=1;boundedLbl=1;backgroundOutline=1;size=15;" vertex="1" parent="WIyWlLk6GJQsqaUBKTNV-1">
          <mxGeometry x="160" y="480" width="240" height="160" as="geometry" />
        </mxCell>
        <mxCell id="NQoc6Oi-0HFmqZmTuHze-77" value="" style="edgeStyle=orthogonalEdgeStyle;rounded=0;orthogonalLoop=1;jettySize=auto;html=1;" edge="1" parent="WIyWlLk6GJQsqaUBKTNV-1" source="NQoc6Oi-0HFmqZmTuHze-5" target="NQoc6Oi-0HFmqZmTuHze-75">
          <mxGeometry relative="1" as="geometry" />
        </mxCell>
        <mxCell id="NQoc6Oi-0HFmqZmTuHze-5" value="Glue Job" style="shape=hexagon;perimeter=hexagonPerimeter2;whiteSpace=wrap;html=1;fixedSize=1;" vertex="1" parent="WIyWlLk6GJQsqaUBKTNV-1">
          <mxGeometry x="160" y="260" width="240" height="140" as="geometry" />
        </mxCell>
        <mxCell id="NQoc6Oi-0HFmqZmTuHze-3" value="" style="edgeStyle=orthogonalEdgeStyle;rounded=0;orthogonalLoop=1;jettySize=auto;html=1;" edge="1" parent="WIyWlLk6GJQsqaUBKTNV-1" source="NQoc6Oi-0HFmqZmTuHze-1" target="WIyWlLk6GJQsqaUBKTNV-3">
          <mxGeometry relative="1" as="geometry" />
        </mxCell>
        <mxCell id="NQoc6Oi-0HFmqZmTuHze-7" value="" style="edgeStyle=orthogonalEdgeStyle;rounded=0;orthogonalLoop=1;jettySize=auto;html=1;" edge="1" parent="WIyWlLk6GJQsqaUBKTNV-1" source="WIyWlLk6GJQsqaUBKTNV-3" target="NQoc6Oi-0HFmqZmTuHze-5">
          <mxGeometry relative="1" as="geometry" />
        </mxCell>
        <mxCell id="WIyWlLk6GJQsqaUBKTNV-3" value="S3 Data Lake" style="rounded=1;whiteSpace=wrap;html=1;fontSize=12;glass=0;strokeWidth=1;shadow=0;" parent="WIyWlLk6GJQsqaUBKTNV-1" vertex="1">
          <mxGeometry x="160" y="80" width="240" height="80" as="geometry" />
        </mxCell>
        <mxCell id="NQoc6Oi-0HFmqZmTuHze-41" value="" style="edgeStyle=orthogonalEdgeStyle;rounded=0;orthogonalLoop=1;jettySize=auto;html=1;" edge="1" parent="WIyWlLk6GJQsqaUBKTNV-1" source="WIyWlLk6GJQsqaUBKTNV-7">
          <mxGeometry relative="1" as="geometry">
            <mxPoint x="280" y="220" as="targetPoint" />
          </mxGeometry>
        </mxCell>
        <mxCell id="WIyWlLk6GJQsqaUBKTNV-7" value="Checkpoint&lt;div&gt;(bookmark)&lt;/div&gt;" style="rounded=1;whiteSpace=wrap;html=1;fontSize=12;glass=0;strokeWidth=1;shadow=0;" parent="WIyWlLk6GJQsqaUBKTNV-1" vertex="1">
          <mxGeometry x="300" y="200" width="120" height="40" as="geometry" />
        </mxCell>
        <mxCell id="NQoc6Oi-0HFmqZmTuHze-1" value="SizeStream API" style="ellipse;shape=cloud;whiteSpace=wrap;html=1;" vertex="1" parent="WIyWlLk6GJQsqaUBKTNV-1">
          <mxGeometry x="150" y="-50" width="260" height="100" as="geometry" />
        </mxCell>
        <mxCell id="NQoc6Oi-0HFmqZmTuHze-8" value="users" style="rounded=0;whiteSpace=wrap;html=1;" vertex="1" parent="WIyWlLk6GJQsqaUBKTNV-1">
          <mxGeometry x="170" y="520" width="55" height="30" as="geometry" />
        </mxCell>
        <mxCell id="NQoc6Oi-0HFmqZmTuHze-88" value="" style="edgeStyle=orthogonalEdgeStyle;rounded=0;orthogonalLoop=1;jettySize=auto;html=1;" edge="1" parent="WIyWlLk6GJQsqaUBKTNV-1" source="NQoc6Oi-0HFmqZmTuHze-38">
          <mxGeometry relative="1" as="geometry">
            <mxPoint x="360" y="560" as="targetPoint" />
          </mxGeometry>
        </mxCell>
        <mxCell id="NQoc6Oi-0HFmqZmTuHze-38" value="scans" style="rounded=0;whiteSpace=wrap;html=1;" vertex="1" parent="WIyWlLk6GJQsqaUBKTNV-1">
          <mxGeometry x="250" y="600" width="50" height="30" as="geometry" />
        </mxCell>
        <mxCell id="NQoc6Oi-0HFmqZmTuHze-39" value="scan data" style="rounded=0;whiteSpace=wrap;html=1;" vertex="1" parent="WIyWlLk6GJQsqaUBKTNV-1">
          <mxGeometry x="327.5" y="520" width="65" height="30" as="geometry" />
        </mxCell>
        <mxCell id="NQoc6Oi-0HFmqZmTuHze-78" value="" style="edgeStyle=orthogonalEdgeStyle;rounded=0;orthogonalLoop=1;jettySize=auto;html=1;" edge="1" parent="WIyWlLk6GJQsqaUBKTNV-1" source="NQoc6Oi-0HFmqZmTuHze-71" target="NQoc6Oi-0HFmqZmTuHze-72">
          <mxGeometry relative="1" as="geometry">
            <Array as="points">
              <mxPoint x="218" y="375" />
            </Array>
          </mxGeometry>
        </mxCell>
        <mxCell id="NQoc6Oi-0HFmqZmTuHze-71" value="users" style="rounded=0;whiteSpace=wrap;html=1;" vertex="1" parent="WIyWlLk6GJQsqaUBKTNV-1">
          <mxGeometry x="190" y="270" width="55" height="30" as="geometry" />
        </mxCell>
        <mxCell id="NQoc6Oi-0HFmqZmTuHze-80" value="" style="edgeStyle=orthogonalEdgeStyle;rounded=0;orthogonalLoop=1;jettySize=auto;html=1;" edge="1" parent="WIyWlLk6GJQsqaUBKTNV-1" source="NQoc6Oi-0HFmqZmTuHze-72">
          <mxGeometry relative="1" as="geometry">
            <mxPoint x="350" y="300" as="targetPoint" />
          </mxGeometry>
        </mxCell>
        <mxCell id="NQoc6Oi-0HFmqZmTuHze-72" value="scans" style="rounded=0;whiteSpace=wrap;html=1;" vertex="1" parent="WIyWlLk6GJQsqaUBKTNV-1">
          <mxGeometry x="255" y="360" width="50" height="30" as="geometry" />
        </mxCell>
        <mxCell id="NQoc6Oi-0HFmqZmTuHze-73" value="scan data" style="rounded=0;whiteSpace=wrap;html=1;" vertex="1" parent="WIyWlLk6GJQsqaUBKTNV-1">
          <mxGeometry x="305" y="270" width="65" height="30" as="geometry" />
        </mxCell>
        <mxCell id="NQoc6Oi-0HFmqZmTuHze-86" value="" style="edgeStyle=orthogonalEdgeStyle;rounded=0;orthogonalLoop=1;jettySize=auto;html=1;" edge="1" parent="WIyWlLk6GJQsqaUBKTNV-1" source="NQoc6Oi-0HFmqZmTuHze-76">
          <mxGeometry relative="1" as="geometry">
            <mxPoint x="245" y="620" as="targetPoint" />
            <Array as="points">
              <mxPoint x="190" y="620" />
            </Array>
          </mxGeometry>
        </mxCell>
        <mxCell id="NQoc6Oi-0HFmqZmTuHze-76" value="users" style="rounded=0;whiteSpace=wrap;html=1;" vertex="1" parent="WIyWlLk6GJQsqaUBKTNV-1">
          <mxGeometry x="170" y="520" width="55" height="30" as="geometry" />
        </mxCell>
        <mxCell id="NQoc6Oi-0HFmqZmTuHze-81" value="Loads only delta changes" style="text;strokeColor=none;align=center;fillColor=none;html=1;verticalAlign=middle;whiteSpace=wrap;rounded=0;" vertex="1" parent="WIyWlLk6GJQsqaUBKTNV-1">
          <mxGeometry x="290" y="420" width="60" height="30" as="geometry" />
        </mxCell>
        <mxCell id="NQoc6Oi-0HFmqZmTuHze-84" value="&lt;span style=&quot;color: rgb(22, 25, 31); font-family: &amp;quot;Amazon Ember&amp;quot;, Helvetica, Arial, sans-serif; text-align: start; background-color: rgb(255, 255, 255);&quot;&gt;&lt;font style=&quot;font-size: 12px;&quot;&gt;Keep state after a run to keep track of previously processed data&lt;/font&gt;&lt;/span&gt;" style="text;strokeColor=none;align=center;fillColor=none;html=1;verticalAlign=middle;whiteSpace=wrap;rounded=0;" vertex="1" parent="WIyWlLk6GJQsqaUBKTNV-1">
          <mxGeometry x="430" y="205" width="190" height="30" as="geometry" />
        </mxCell>
        <mxCell id="NQoc6Oi-0HFmqZmTuHze-91" value="List" style="swimlane;fontStyle=0;childLayout=stackLayout;horizontal=1;startSize=30;horizontalStack=0;resizeParent=1;resizeParentMax=0;resizeLast=0;collapsible=1;marginBottom=0;whiteSpace=wrap;html=1;" vertex="1" parent="WIyWlLk6GJQsqaUBKTNV-1">
          <mxGeometry x="410" y="270" width="140" height="120" as="geometry" />
        </mxCell>
        <mxCell id="NQoc6Oi-0HFmqZmTuHze-92" value="Load the new users" style="text;strokeColor=none;fillColor=none;align=left;verticalAlign=middle;spacingLeft=4;spacingRight=4;overflow=hidden;points=[[0,0.5],[1,0.5]];portConstraint=eastwest;rotatable=0;whiteSpace=wrap;html=1;" vertex="1" parent="NQoc6Oi-0HFmqZmTuHze-91">
          <mxGeometry y="30" width="140" height="30" as="geometry" />
        </mxCell>
        <mxCell id="NQoc6Oi-0HFmqZmTuHze-93" value="Scans against the users" style="text;strokeColor=none;fillColor=none;align=left;verticalAlign=middle;spacingLeft=4;spacingRight=4;overflow=hidden;points=[[0,0.5],[1,0.5]];portConstraint=eastwest;rotatable=0;whiteSpace=wrap;html=1;" vertex="1" parent="NQoc6Oi-0HFmqZmTuHze-91">
          <mxGeometry y="60" width="140" height="30" as="geometry" />
        </mxCell>
        <mxCell id="NQoc6Oi-0HFmqZmTuHze-94" value="Data the against scans" style="text;strokeColor=none;fillColor=none;align=left;verticalAlign=middle;spacingLeft=4;spacingRight=4;overflow=hidden;points=[[0,0.5],[1,0.5]];portConstraint=eastwest;rotatable=0;whiteSpace=wrap;html=1;" vertex="1" parent="NQoc6Oi-0HFmqZmTuHze-91">
          <mxGeometry y="90" width="140" height="30" as="geometry" />
        </mxCell>
      </root>
    </mxGraphModel>
  </diagram>
</mxfile>
